# xmcd
#
# Track frame offsets:
#	150
#	16375
#	33462
#	53410
#	76957
#	95825
#	111670
#	128335
#	144075
#	157392
#	175152
#	186480
#
# Disc length: 2865 seconds
#
# Revision: 1
# Processed by: cddbd v1.5.1PL0 Copyright (c) Steve Scherf et al.
# Submitted via: CDex 1.50Beta5
#
DISCID=9f0b2f0c
DTITLE=浅川マキ - 浅川マキII
DYEAR=1992
DGENRE=
TTITLE0=少年
TTITLE1=眠るのがこわい
TTITLE2=ジン・ハウス・ブルース
TTITLE3=花いちもんめ
TTITLE4=ゴビンダ
TTITLE5=少年パート2
TTITLE6=めくら花
TTITLE7=雪の海
TTITLE8=港の彼岸花
TTITLE9=わたしが娼婦になったなら
TTITLE10=ゴー・ダウン・モーゼ
TTITLE11=朝日のあたる家
EXTD=
EXTT0=
EXTT1=
EXTT2=
EXTT3=
EXTT4=
EXTT5=
EXTT6=
EXTT7=
EXTT8=
EXTT9=
EXTT10=
EXTT11=
PLAYORDER=
